<svg xmlns="http://www.w3.org/2000/svg" viewBox="0 0 64 64">
  <rect fill="currentColor" x="8" y="16" width="48" height="32" rx="4" ry="4" opacity=".15"/>
  <path fill="var(--icon-color-accent, #ff8700)" d="M16 22c-2.2 0-4 1.8-4 4v2c0 2.2 1.8 4 4 4h1l-2.5 5h3l3-5h.5V26c0-2.2-1.8-4-4-4zm10 0c-2.2 0-4 1.8-4 4v2c0 2.2 1.8 4 4 4h1l-2.5 5h3l3-5h.5V26c0-2.2-1.8-4-4-4z"/>
  <rect fill="currentColor" x="36" y="22" width="18" height="4" rx="2" ry="2" opacity=".6"/>
  <rect fill="currentColor" x="36" y="30" width="12" height="4" rx="2" ry="2" opacity=".4"/>
</svg>
