<svg xmlns="http://www.w3.org/2000/svg" viewBox="0 0 64 64">
  <path fill="currentColor" d="M32 10c-12.1 0-22 9.9-22 22s9.9 22 22 22c1.7 0 3.4-.2 5-.6L48 58V48.4c3.7-3.8 6-9 6-14.4 0-12.1-9.9-22-22-22zm0 4c9.9 0 18 8.1 18 18s-8.1 18-18 18c-1.6 0-3.1-.2-4.6-.6L14 52v-8.6C11.4 40.1 10 36.2 10 32c0-9.9 8.1-18 18-18z"/>
  <path fill="var(--icon-color-accent, #ff8700)" d="M32 38a2 2 0 1 0 0 4 2 2 0 0 0 0-4zM32 20c-3.3 0-6 2.7-6 6h3c0-1.7 1.3-3 3-3s3 1.3 3 3c0 2-3 5-3 8h3c0-2.5 3-5.8 3-8 0-3.3-2.7-6-6-6z"/>
</svg>
